<?xml version="1.0" standalone="no"?>
<!DOCTYPE svg PUBLIC "-//W3C//DTD SVG 20010904//EN"
 "http://www.w3.org/TR/2001/REC-SVG-20010904/DTD/svg10.dtd">
<svg version="1.0" xmlns="http://www.w3.org/2000/svg"
 width="1039.000000pt" height="1039.000000pt" viewBox="0 0 1039.000000 1039.000000"
 preserveAspectRatio="xMidYMid meet">
<metadata>
Created by potrace 1.11, written by Peter Selinger 2001-2013
</metadata>
<g transform="translate(0.000000,1039.000000) scale(0.100000,-0.100000)"
fill="#000000" stroke="none">
<path d="M4337 9754 c-1 -1 -47 -5 -102 -8 -103 -6 -139 -10 -260 -26 -38 -6
-90 -13 -115 -16 -190 -25 -468 -91 -700 -166 -590 -191 -1157 -514 -1625
-929 -61 -53 -348 -341 -390 -389 -69 -80 -141 -169 -160 -194 -11 -16 -25
-33 -30 -40 -60 -65 -272 -382 -358 -533 -66 -115 -187 -360 -237 -478 -130
-305 -255 -733 -295 -1010 -3 -22 -10 -65 -16 -96 -5 -31 -12 -81 -15 -110 -3
-30 -7 -67 -9 -84 -26 -217 -26 -874 0 -948 3 -7 7 -41 9 -77 3 -36 7 -74 9
-85 3 -11 7 -41 11 -66 4 -25 9 -59 12 -75 128 -738 439 -1437 897 -2023 144
-183 184 -228 367 -412 179 -180 399 -371 526 -459 12 -8 50 -35 85 -60 434
-305 911 -529 1429 -670 58 -16 116 -31 130 -34 14 -3 36 -8 50 -11 44 -11
273 -55 320 -61 25 -3 52 -7 60 -9 8 -2 47 -7 85 -11 39 -3 78 -8 89 -10 131
-24 789 -23 921 2 27 5 155 17 180 17 18 0 59 -5 165 -18 155 -20 617 -26 795
-11 55 5 114 10 130 11 37 3 213 26 240 31 10 2 37 6 60 10 61 9 210 40 375
79 107 25 398 120 535 174 473 189 901 448 1290 780 97 83 360 340 440 431
273 309 491 632 674 997 133 266 227 505 310 793 16 58 32 116 35 130 2 14 12
57 21 95 9 39 19 79 21 90 2 11 8 43 14 70 13 69 19 102 26 155 3 25 7 52 9
60 2 8 7 49 11 90 3 41 8 78 10 81 1 3 6 55 11 115 14 199 7 711 -12 834 -2
14 -6 50 -10 80 -3 30 -10 80 -15 110 -5 30 -11 71 -14 90 -12 83 -48 246 -85
391 -139 540 -394 1077 -729 1534 -155 211 -264 337 -467 540 -165 165 -185
183 -336 305 -355 289 -735 515 -1144 683 -101 42 -131 58 -133 74 -2 11 -16
33 -33 49 -24 23 -38 28 -74 28 -26 -1 -53 -8 -63 -17 -15 -14 -24 -13 -92 9
-71 24 -361 97 -425 109 -16 2 -39 7 -50 9 -23 4 -207 35 -245 41 -26 4 -135
16 -185 21 -205 19 -527 23 -720 10 -121 -8 -137 -10 -240 -21 -93 -11 -176
-8 -285 9 -89 15 -671 31 -683 20z"/>
</g>
</svg>
