<svg width="1073" height="742" viewBox="0 0 1073 742" fill="none" xmlns="http://www.w3.org/2000/svg">
<g id="eth-volant" clip-path="url(#clip0)">
<g id="fil">
<path id="Vector" opacity="0.5" d="M66 161.46C66 161.46 251.59 316.73 314.79 410.29C377.99 503.85 537.5 487.93 537.5 487.93" stroke="#5D596A" stroke-width="3" stroke-miterlimit="10"/>
</g>
<g id="eth">
<path id="Vector_2" d="M65.5 -0.0200195L64.07 4.83998V145.98L65.5 147.41L130.98 108.7L65.5 -0.0200195Z" fill="#343434"/>
<path id="Vector_3" d="M65.5 -0.0200195L0 108.65L65.5 147.36V-0.0200195Z" fill="#8C8C8C"/>
<path id="Vector_4" d="M65.5 159.76L64.69 160.76V210.98L65.5 213.33L131.02 121.06L65.5 159.76Z" fill="#3C3C3B"/>
<path id="Vector_5" d="M65.5 213.34V159.76L0 121.07L65.5 213.34Z" fill="#8C8C8C"/>
<path id="Vector_6" d="M65.5 147.36L130.98 108.66L65.5 78.89V147.36Z" fill="#141414"/>
<path id="Vector_7" d="M0 108.65L65.5 147.36V78.89L0 108.65Z" fill="#393939"/>
</g>
<g id="full">
<path id="Vector_8" d="M801.5 717.57C800.29 712.41 796.99 710.57 789.72 711.45C781.82 712.45 773.93 713.38 764.27 706.58C759.15 702.98 755.17 699.8 752.54 697.58L752.97 697.47C752.97 697.47 733.4 672.98 734.65 658.88C735.9 644.78 725.55 608.36 725.55 608.36C725.55 608.36 724.99 584.57 719.55 570.76C718.092 567.138 716.987 563.384 716.25 559.55C713.03 542.13 703.33 496.08 687.61 475.78L686.61 435.19V433.63L687.02 434.04C688.489 432.47 689.674 430.657 690.52 428.68C695.13 431.05 705.07 435.96 710.45 437.01C717.61 438.4 726.45 444.44 726.45 444.44C726.45 444.44 746.8 468.16 762.39 457.65C777.98 447.14 733.24 430.23 733.24 430.23C733.24 430.23 718 422 711.62 419.81C707.1 418.26 697.71 412.13 692.62 408.68C692.533 408.127 692.433 407.563 692.32 406.99C689.38 391.77 685.08 385.99 686.86 376.6C687.346 374.195 688.087 371.848 689.07 369.6C695.07 355.41 670.07 335.7 670.07 335.7C670.07 335.7 653.07 321.27 659.25 313.32C659.25 313.32 668.73 312.32 660.63 304.7C659.24 303.39 657.8 302.18 656.37 301.06C656.43 300.85 656.49 300.65 656.56 300.44C658.241 295.231 660.88 290.381 664.34 286.14C664.88 285.47 665.46 284.81 666.07 284.14C672.665 282.384 678.481 278.469 682.59 273.021C686.7 267.572 688.865 260.903 688.74 254.08C688.567 246.658 685.653 239.562 680.56 234.16C681.503 233.311 682.231 232.25 682.683 231.064C683.135 229.878 683.299 228.602 683.16 227.34C683.98 217.44 664.11 207.44 655.81 208.9C651.08 209.73 646.81 212.28 642.07 213.15C637.16 214.05 632.07 213.07 627.07 213.15C620.387 213.225 613.852 215.134 608.18 218.67C606.759 219.461 605.562 220.6 604.7 221.98C604.008 223.604 603.667 225.355 603.7 227.12C602.3 245.33 589.12 260.48 575.12 272.45C573.233 273.857 571.626 275.603 570.38 277.6C568.96 280.28 568.99 283.45 568.97 286.47C568.75 316.65 558.05 348.35 533.77 366.75C534.15 366.99 534.53 367.22 534.93 367.43C534.56 367.72 534.19 368.03 533.81 368.31C541.7 373.44 553.56 370.94 558.81 363.31C556.865 371.661 553.481 379.609 548.81 386.8L549.81 386.75C549.48 387.29 549.16 387.83 548.81 388.36C559.63 388.13 567.6 378.7 574.01 370.1C574.08 370.93 574.13 371.77 574.16 372.6C574.198 381.901 571.661 391.032 566.83 398.98L567.83 398.89C567.517 399.45 567.183 400.003 566.83 400.55C568.423 400.417 570.017 400.253 571.61 400.06C565.23 413.06 555.22 436.76 555.22 436.76L551.5 445.98C549.487 450.92 546.559 455.436 542.87 459.29C538.82 463.52 533.71 468.66 531.52 470.03C527.62 472.46 518.06 503.91 535.36 498.82C552.66 493.73 559.22 469.38 559.22 469.38C559.754 465.39 561.299 461.604 563.71 458.38C565.025 456.548 566.125 454.572 566.99 452.49C571.787 441.917 577.165 431.618 583.1 421.64C586.516 415.991 589.405 410.039 591.73 403.86C593.064 400.354 594.77 397.002 596.82 393.86C600.705 392.235 604.394 390.179 607.82 387.73C610.73 385.7 613.247 383.159 615.25 380.23C616.478 385.15 617.97 390 619.72 394.76C623.92 406.12 631.59 432.42 620.48 450.01C610.29 466.15 610.07 473.96 610.83 477.18C610.83 477.35 610.73 477.52 610.68 477.7C608.766 484.904 609.678 492.567 613.23 499.12C615.161 502.802 616.231 506.874 616.36 511.03V512.22C616.423 514.973 616.059 517.719 615.28 520.36C613.11 527.72 608.59 543.94 607.08 555.69C605.08 571.35 591.97 586.48 591.97 586.48C591.97 586.48 557.22 623.98 543.97 668C543.97 668 536.5 686.91 531.05 690.94C531.05 690.94 520.68 697.11 518.95 708.94C518.95 709.26 518.86 709.58 518.83 709.94L516.58 715.46C516.58 715.46 535.9 725.98 539.86 725.88L542.12 721.14L562.27 736.28L592.34 735.58C593.163 735.031 593.895 734.356 594.51 733.58C595.95 731.7 596.8 728.76 592.24 725.7C589.973 724.236 587.245 723.663 584.58 724.09C580.71 724.66 573.31 723.37 566.38 708.9L562.56 701.78L563.05 701.95C563.05 701.95 556.46 691.18 569.59 676.82C582.72 662.46 601.59 624.56 601.59 624.56C601.59 624.56 627.23 603.67 631.67 590.29C631.67 590.29 648.77 561.42 658.67 544.29C660.32 547.87 661.67 550.58 661.67 550.58C661.67 550.58 682.11 578.2 684.98 599.21C687.85 620.22 707.24 671.98 715.5 685.86C723.76 699.74 723.87 705.18 723.87 705.18C723.87 705.18 718.75 718.3 721.96 729.08L722.06 729.42L722.21 735.66L745.21 735.9L745.14 732.78L774.46 733.65C774.46 733.65 802.77 725.18 801.83 718.96C801.717 718.473 801.607 718.01 801.5 717.57Z" fill="url(#paint0_linear)"/>
<path id="Vector_9" d="M673.58 284.59C669.986 287.087 666.767 290.084 664.02 293.49C660.672 297.654 658.123 302.4 656.5 307.49C655.124 311.595 654.448 315.901 654.5 320.23L639.65 307.56L620.65 311.84C624.612 308.039 628.034 303.712 630.82 298.98C633.329 294.735 635.343 290.215 636.82 285.51C637.814 282.471 638.514 279.343 638.91 276.17C638.91 276.17 693.93 270.33 673.58 284.59Z" fill="#EFB4B6"/>
<path id="Vector_10" d="M596.62 732.46C596.03 733.233 595.321 733.908 594.52 734.46L565.43 735.14L545.94 720.28L543.75 724.93C539.92 725.02 521.3 714.73 521.3 714.73L523.47 709.32C523.47 709 523.54 708.68 523.59 708.32C525.26 696.66 535.29 690.62 535.29 690.62L539.08 689L562.19 694.59L569.4 708.21C576.11 722.41 583.26 723.68 587.01 723.12C589.591 722.701 592.235 723.265 594.42 724.7C598.84 727.73 598.01 730.62 596.62 732.46Z" fill="#C17174"/>
<path id="Vector_11" d="M797.09 718.22C798 724.33 770.62 732.63 770.62 732.63L742.26 731.76L742.33 734.82L720.12 734.57L719.98 728.45L719.88 728.12C716.78 717.54 721.72 704.67 721.72 704.67L723.93 700.79L745.98 694.15C750.663 698.433 755.617 702.411 760.81 706.06C770.16 712.73 777.81 711.79 785.43 710.84C792.43 709.97 795.66 711.79 796.83 716.84C796.93 717.28 797.017 717.74 797.09 718.22Z" fill="#C17174"/>
<path id="Vector_12" d="M664.91 535.22C664.18 536.78 661.78 541.11 658.59 546.74C649.07 563.56 632.5 591.88 632.5 591.88C628.25 604.98 603.5 625.5 603.5 625.5C603.5 625.5 585.23 662.69 572.5 676.77C559.77 690.85 566.19 701.42 566.19 701.42L535.3 690.66C540.57 686.66 547.79 668.16 547.79 668.16C560.56 624.97 594.16 588.16 594.16 588.16C594.16 588.16 606.83 573.31 608.77 557.95C610.22 546.42 614.59 530.51 616.69 523.29C617.43 520.69 617.767 517.992 617.69 515.29V514.12C617.574 510.052 616.549 506.061 614.69 502.44C611.25 496.002 610.364 488.503 612.21 481.44C612.824 478.928 613.837 476.531 615.21 474.34L622.76 472.14L649.5 464.36C649.5 464.36 651.15 470.17 653.38 478.48C658.55 497.87 666.95 530.88 664.91 535.22Z" fill="#5D596A"/>
<path id="Vector_13" opacity="0.1" d="M664.91 535.22C664.18 536.78 661.78 541.11 658.59 546.74C649.07 563.56 632.5 591.88 632.5 591.88C628.25 604.98 603.5 625.5 603.5 625.5C603.5 625.5 585.23 662.69 572.5 676.77C559.77 690.85 566.19 701.42 566.19 701.42L535.3 690.66C540.57 686.66 547.79 668.16 547.79 668.16C560.56 624.97 594.16 588.16 594.16 588.16C594.16 588.16 606.83 573.31 608.77 557.95C610.22 546.42 614.59 530.51 616.69 523.29C617.43 520.69 617.767 517.992 617.69 515.29V514.12C617.574 510.052 616.549 506.061 614.69 502.44C611.25 496.002 610.364 488.503 612.21 481.44C612.824 478.928 613.837 476.531 615.21 474.34L622.76 472.14L649.5 464.36C649.5 464.36 651.15 470.17 653.38 478.48C658.55 497.87 666.95 530.88 664.91 535.22Z" fill="black"/>
<path id="Vector_14" d="M749.88 697.12L721.72 704.67C721.72 704.67 721.59 699.31 713.62 685.67C705.65 672.03 686.84 621.2 684.06 600.59C681.28 579.98 661.5 552.91 661.5 552.91C661.5 552.91 660.2 550.25 658.6 546.74C657.12 543.49 655.4 539.52 654.22 536.24C651.76 529.41 640.81 519.71 640.81 519.71C620.81 508.59 616.81 495.28 616.58 486.95C616.468 484.225 616.83 481.501 617.65 478.9L622.79 472.16L632.5 459.4L665.37 424.17L685.37 428.3L686.57 479.58C701.78 499.5 711.18 544.68 714.3 561.78C715.015 565.54 716.086 569.223 717.5 572.78C722.77 586.33 723.32 609.67 723.32 609.67C723.32 609.67 733.32 645.43 732.14 659.24C730.96 673.05 749.88 697.12 749.88 697.12Z" fill="#5D596A"/>
<path id="Vector_15" d="M688.04 411.38C688.04 411.38 703.62 422.5 709.79 424.66C715.96 426.82 730.71 434.89 730.71 434.89C730.71 434.89 773.99 451.49 758.91 461.8C743.83 472.11 724.14 448.8 724.14 448.8C724.14 448.8 715.58 442.87 708.65 441.5C701.72 440.13 686.99 432.05 686.99 432.05L688.04 411.38Z" fill="#EFB4B6"/>
<path id="Vector_16" opacity="0.1" d="M673.58 284.59C669.986 287.087 666.767 290.084 664.02 293.49C662.201 293.874 660.349 294.089 658.49 294.13C650.07 294.33 645.71 285.13 640.15 279.63C641.9 274.07 638.92 276.21 638.92 276.21C638.92 276.21 693.93 270.33 673.58 284.59Z" fill="black"/>
<path id="Vector_17" d="M658.443 292.622C674.93 292.236 687.983 278.558 687.597 262.071C687.211 245.585 673.534 232.532 657.047 232.918C640.56 233.303 627.508 246.981 627.893 263.468C628.279 279.955 641.957 293.007 658.443 292.622Z" fill="#EFB4B6"/>
<path id="Vector_18" opacity="0.1" d="M654.5 320.27L639.65 307.6L620.65 311.88C624.615 308.067 628.037 303.726 630.82 298.98H630.95C637.338 297.762 643.95 299.024 649.44 302.51C651.887 304.041 654.244 305.71 656.5 307.51C655.122 311.621 654.446 315.935 654.5 320.27V320.27Z" fill="black"/>
<path id="Vector_19" opacity="0.1" d="M685.37 428.29L685.64 439.74C683.33 437.43 671.85 426.52 674.98 442.32C678.45 459.85 658.08 472.58 658.08 472.58C656.603 474.624 655.021 476.59 653.34 478.47C637.18 496.38 622.86 490.98 616.57 486.98C615.354 486.23 614.216 485.363 613.17 484.39C612.565 483.54 612.218 482.533 612.17 481.49C612.784 478.978 613.797 476.581 615.17 474.39L622.72 472.19L632.5 459.4L665.37 424.17L685.37 428.29Z" fill="black"/>
<path id="Vector_20" d="M686 438.61C686 438.61 671.47 423.25 674.95 440.78C678.43 458.31 658.05 471.04 658.05 471.04C634.31 503.76 613.14 482.81 613.14 482.81C613.14 482.81 607.64 476.81 621.66 454.27C632.4 437.01 624.98 411.21 620.91 400.06C619.173 395.244 617.701 390.337 616.5 385.36L615.5 381.36L613.18 371.98C610.482 361.055 609.637 349.755 610.68 338.55C611.365 331.059 612.929 323.675 615.34 316.55C616.88 311.99 618.61 308.07 620.47 305.73C623.136 302.539 626.858 300.41 630.96 299.73C637.369 298.506 644.004 299.784 649.5 303.3C653.437 305.726 657.122 308.54 660.5 311.7C668.33 319.17 659.17 320.16 659.17 320.16C653.23 327.96 669.64 342.16 669.64 342.16C669.64 342.16 693.83 361.5 688.03 375.43C682.23 389.36 687.7 393.82 691.19 412.12C694.68 430.42 686 438.61 686 438.61Z" fill="#9F9EFF"/>
<path id="Vector_21" opacity="0.1" d="M655.78 219.24C651.2 220.06 647.06 222.55 642.49 223.4C637.74 224.28 632.86 223.32 628.02 223.4C621.546 223.474 615.22 225.347 609.75 228.81C608.362 229.578 607.192 230.686 606.35 232.03C605.675 233.61 605.334 235.312 605.35 237.03C604 254.9 591.26 269.76 577.72 281.49C575.894 282.858 574.337 284.554 573.13 286.49C571.75 289.12 571.79 292.23 571.77 295.2C571.57 324.81 561.23 355.91 537.77 373.96C545.69 379.19 557.77 376.35 562.53 368.14C560.788 377.191 557.347 385.83 552.39 393.6C562.85 393.38 570.56 384.12 576.76 375.69C577.633 386.151 575.183 396.622 569.76 405.61C583.76 404.4 598.06 401.38 609.38 393.1C614.56 389.31 619.27 383.79 619.16 377.37C619.1 373.69 617.46 370.26 616.29 366.77C613.24 357.69 613.97 346.24 621.52 340.35C622.945 339.418 624.284 338.361 625.52 337.19C627.25 335.25 627.86 332.58 628.21 330C629.061 323.722 628.742 317.342 627.27 311.18C626.872 309.884 626.666 308.536 626.66 307.18C626.83 304.35 628.96 301.98 631.38 300.52C633.8 299.06 636.56 298.26 639.13 297.05C643.541 294.891 647.267 291.552 649.895 287.404C652.523 283.255 653.951 278.46 654.02 273.55C654.02 270.68 653.64 267.48 655.46 265.27C658.15 261.99 663.74 263.11 666.96 260.36C670.01 257.75 669.67 252.89 671.8 249.48C673.55 246.68 676.8 245.19 679.17 242.94C691.07 231.98 665.39 217.53 655.78 219.24Z" fill="black"/>
<path id="Vector_22" opacity="0.1" d="M653.26 332.36V332.55L634.4 358.16L622.84 373.85C622.84 373.85 619.69 376.85 615.48 381.36L613.18 371.98C610.482 361.055 609.637 349.755 610.68 338.55C615.05 329.83 619.75 323.99 624.15 320.06C626.623 317.867 629.667 316.418 632.929 315.882C636.191 315.346 639.538 315.744 642.583 317.031C645.629 318.318 648.247 320.44 650.137 323.153C652.026 325.865 653.109 329.058 653.26 332.36V332.36Z" fill="black"/>
<path id="Vector_23" d="M655.74 217.71C651.16 218.53 647.02 221.02 642.45 221.87C637.7 222.75 632.82 221.79 627.98 221.87C621.506 221.944 615.18 223.817 609.71 227.28C608.322 228.048 607.152 229.156 606.31 230.5C605.635 232.08 605.294 233.782 605.31 235.5C603.96 253.37 591.22 268.23 577.68 279.96C575.854 281.328 574.297 283.024 573.09 284.96C571.71 287.59 571.75 290.7 571.73 293.67C571.53 323.28 561.19 354.38 537.73 372.43C545.65 377.66 557.73 374.82 562.49 366.61C560.748 375.661 557.307 384.3 552.35 392.07C562.81 391.85 570.52 382.59 576.72 374.16C577.593 384.621 575.143 395.092 569.72 404.08C583.72 402.87 598.02 399.85 609.34 391.57C614.52 387.78 619.23 382.26 619.12 375.84C619.06 372.16 617.42 368.73 616.25 365.24C613.2 356.16 613.93 344.71 621.48 338.82C622.905 337.888 624.244 336.831 625.48 335.66C627.21 333.72 627.82 331.05 628.17 328.47C629.021 322.192 628.702 315.812 627.23 309.65C626.832 308.354 626.626 307.006 626.62 305.65C626.79 302.82 628.92 300.45 631.34 298.99C633.76 297.53 636.52 296.73 639.09 295.52C643.501 293.361 647.227 290.022 649.855 285.874C652.483 281.725 653.911 276.93 653.98 272.02C653.98 269.15 653.6 265.95 655.42 263.74C658.11 260.46 663.7 261.58 666.92 258.83C669.97 256.22 669.63 251.36 671.76 247.95C673.51 245.15 676.76 243.66 679.13 241.41C691.03 230.41 665.35 215.98 655.74 217.71Z" fill="#C17174"/>
<path id="Vector_24" d="M651.69 330.86V331.05L632.82 356.66L621.26 372.35C621.26 372.35 599.5 392.78 593.79 408.98C591.546 415.035 588.755 420.872 585.45 426.42C579.71 436.214 574.512 446.316 569.88 456.68C569.046 458.717 567.982 460.653 566.71 462.45C564.371 465.631 562.878 469.354 562.37 473.27C562.37 473.27 556.04 497.16 539.31 502.15C522.58 507.14 531.81 476.29 535.58 473.9C537.7 472.56 542.64 467.52 546.58 463.37C550.153 459.577 552.982 455.147 554.92 450.31L558.57 441.2C558.57 441.2 575.97 399.44 578.98 397.07C579.859 396.315 580.603 395.415 581.18 394.41C583.59 390.48 586.04 386.58 588.56 382.72C591.87 377.67 597.11 367.57 604.62 347.45C605.15 346.04 605.68 344.68 606.23 343.38C611.36 331.06 617.23 323.38 622.6 318.56C625.074 316.373 628.116 314.929 631.375 314.397C634.634 313.864 637.977 314.264 641.018 315.55C644.06 316.836 646.676 318.956 648.564 321.665C650.452 324.374 651.536 327.561 651.69 330.86Z" fill="#EFB4B6"/>
<path id="Vector_25" d="M651.69 330.86V331.05L632.82 356.66L606.2 343.4C611.33 331.08 617.2 323.4 622.57 318.58C625.042 316.384 628.085 314.933 631.346 314.395C634.608 313.856 637.956 314.252 641.003 315.537C644.049 316.821 646.669 318.942 648.561 321.654C650.452 324.366 651.537 327.557 651.69 330.86V330.86Z" fill="#9F9EFF"/>
<path id="Vector_26" opacity="0.1" d="M628.33 310.52C628.33 310.52 648.74 319.26 658.71 319.79Z" fill="black"/>
<path id="Vector_27" opacity="0.1" d="M797.09 718.22C798 724.33 770.62 732.63 770.62 732.63L742.26 731.76L742.33 734.82L720.12 734.57L719.98 728.45L719.88 728.12L770.88 729.18L796.78 716.86C796.913 717.287 797.017 717.74 797.09 718.22Z" fill="black"/>
<path id="Vector_28" opacity="0.1" d="M596.62 732.46C596.03 733.233 595.321 733.908 594.52 734.46L565.43 735.14L545.94 720.28L543.75 724.93C539.92 725.02 521.3 714.73 521.3 714.73L523.47 709.32C523.47 709 523.54 708.68 523.59 708.32L546.28 718.32L565.76 732.41L596.62 732.46Z" fill="black"/>
<path id="Vector_29" opacity="0.1" d="M616.5 478.54C616.5 478.54 627.44 455.31 638.76 448.15Z" fill="black"/>
<path id="Vector_30" opacity="0.1" d="M660 374.89C660 374.89 666.41 386.84 685.83 382.25Z" fill="black"/>
<path id="Vector_31" d="M839.98 632.06C839.98 632.06 772.35 672.86 896.98 735.68C896.98 735.68 924.44 684.68 894.08 643.11C888.185 635.004 879.522 629.342 869.732 627.196C859.941 625.051 849.704 626.572 840.96 631.47L839.98 632.06Z" fill="#3861E5"/>
<path id="Vector_32" d="M840.76 631.2C840.76 631.2 898.64 675.48 897.01 735.68" stroke="#535461" stroke-miterlimit="10"/>
<path id="Vector_33" d="M900.29 736.42C900.29 736.42 879.1 664.42 904.29 611.51C914.987 589.364 918.212 564.345 913.48 540.21C911.146 528.772 907.768 517.572 903.39 506.75" stroke="#535461" stroke-width="2" stroke-miterlimit="10"/>
<path id="Vector_34" d="M919.02 473.28C919.02 482.1 903.02 507.67 903.02 507.67C903.02 507.67 887.02 482.1 887.02 473.28C887.288 469.229 889.087 465.431 892.052 462.656C895.016 459.881 898.925 458.338 902.985 458.338C907.045 458.338 910.954 459.881 913.918 462.656C916.883 465.431 918.682 469.229 918.95 473.28H919.02Z" fill="#3861E5"/>
<path id="Vector_35" d="M945.41 522.13C940.62 529.53 913.32 542.32 913.32 542.32C913.32 542.32 913.82 512.18 918.61 504.78C919.677 502.868 921.126 501.196 922.866 499.867C924.605 498.538 926.599 497.58 928.724 497.052C930.849 496.525 933.06 496.439 935.219 496.8C937.378 497.161 939.441 497.962 941.278 499.152C943.116 500.342 944.69 501.897 945.902 503.72C947.115 505.543 947.94 507.595 948.327 509.75C948.715 511.905 948.655 514.117 948.154 516.248C947.652 518.379 946.718 520.384 945.41 522.14V522.13Z" fill="#3861E5"/>
<path id="Vector_36" d="M944.26 605.59C936.39 609.59 906.37 606.82 906.37 606.82C906.37 606.82 922.01 581.05 929.89 577.08C931.776 575.968 933.87 575.255 936.043 574.985C938.216 574.715 940.421 574.894 942.522 575.51C944.623 576.127 946.574 577.168 948.257 578.57C949.939 579.971 951.316 581.703 952.302 583.657C953.288 585.612 953.862 587.749 953.989 589.934C954.116 592.12 953.793 594.309 953.04 596.365C952.287 598.421 951.121 600.3 949.612 601.887C948.103 603.474 946.285 604.734 944.27 605.59H944.26Z" fill="#3861E5"/>
<path id="Vector_37" d="M929.17 668.55C922.08 673.79 892.03 676.16 892.03 676.16C892.03 676.16 903.09 648.16 910.18 642.87C913.597 640.66 917.727 639.834 921.731 640.561C925.734 641.289 929.311 643.514 931.732 646.785C934.152 650.056 935.236 654.126 934.762 658.167C934.288 662.209 932.292 665.918 929.18 668.54L929.17 668.55Z" fill="#3861E5"/>
<path id="Vector_38" d="M879.8 543.98C886.12 550.12 915.59 556.49 915.59 556.49C915.59 556.49 908.37 527.22 902.05 521.08C898.957 518.451 894.98 517.096 890.926 517.29C886.871 517.483 883.041 519.21 880.213 522.122C877.384 525.033 875.768 528.911 875.691 532.969C875.614 537.028 877.083 540.964 879.8 543.98Z" fill="#3861E5"/>
<path id="Vector_39" d="M863.08 617.88C870.95 621.88 900.97 619.11 900.97 619.11C900.97 619.11 885.33 593.33 877.5 589.36C875.614 588.248 873.52 587.535 871.347 587.265C869.174 586.995 866.969 587.174 864.868 587.79C862.767 588.407 860.816 589.448 859.133 590.849C857.451 592.251 856.074 593.983 855.088 595.937C854.102 597.892 853.528 600.029 853.401 602.214C853.274 604.4 853.597 606.589 854.35 608.645C855.103 610.701 856.269 612.58 857.778 614.167C859.287 615.754 861.105 617.014 863.12 617.87L863.08 617.88Z" fill="#3861E5"/>
<path id="Vector_40" d="M856.68 691.89C863.77 697.13 893.82 699.5 893.82 699.5C893.82 699.5 882.76 671.5 875.67 666.21C873.998 664.802 872.056 663.751 869.962 663.122C867.868 662.493 865.668 662.3 863.497 662.555C861.326 662.81 859.23 663.507 857.339 664.603C855.448 665.699 853.801 667.17 852.501 668.927C851.2 670.684 850.274 672.689 849.778 674.818C849.282 676.947 849.228 679.155 849.619 681.306C850.009 683.457 850.837 685.504 852.049 687.323C853.262 689.142 854.835 690.693 856.67 691.88L856.68 691.89Z" fill="#3861E5"/>
<path id="Vector_41" opacity="0.25" d="M919.02 473.28C919.02 482.1 903.02 507.67 903.02 507.67C903.02 507.67 887.02 482.1 887.02 473.28C887.288 469.229 889.087 465.431 892.052 462.656C895.016 459.881 898.925 458.338 902.985 458.338C907.045 458.338 910.954 459.881 913.918 462.656C916.883 465.431 918.682 469.229 918.95 473.28H919.02Z" fill="black"/>
<path id="Vector_42" opacity="0.25" d="M945.41 522.13C940.62 529.53 913.32 542.32 913.32 542.32C913.32 542.32 913.82 512.18 918.61 504.78C919.677 502.868 921.126 501.196 922.866 499.867C924.605 498.538 926.599 497.58 928.724 497.052C930.849 496.525 933.06 496.439 935.219 496.8C937.378 497.161 939.441 497.962 941.278 499.152C943.116 500.342 944.69 501.897 945.902 503.72C947.115 505.543 947.94 507.595 948.327 509.75C948.715 511.905 948.655 514.117 948.154 516.248C947.652 518.379 946.718 520.384 945.41 522.14V522.13Z" fill="black"/>
<path id="Vector_43" opacity="0.25" d="M944.26 605.59C936.39 609.59 906.37 606.82 906.37 606.82C906.37 606.82 922.01 581.05 929.89 577.08C931.776 575.968 933.87 575.255 936.043 574.985C938.216 574.715 940.421 574.894 942.522 575.51C944.623 576.127 946.574 577.168 948.257 578.57C949.939 579.971 951.316 581.703 952.302 583.657C953.288 585.612 953.862 587.749 953.989 589.934C954.116 592.12 953.793 594.309 953.04 596.365C952.287 598.421 951.121 600.3 949.612 601.887C948.103 603.474 946.285 604.734 944.27 605.59H944.26Z" fill="black"/>
<path id="Vector_44" opacity="0.25" d="M929.17 668.55C922.08 673.79 892.03 676.16 892.03 676.16C892.03 676.16 903.09 648.16 910.18 642.87C913.597 640.66 917.727 639.834 921.731 640.561C925.734 641.289 929.311 643.514 931.732 646.785C934.152 650.056 935.236 654.126 934.762 658.167C934.288 662.209 932.292 665.918 929.18 668.54L929.17 668.55Z" fill="black"/>
<path id="Vector_45" opacity="0.25" d="M879.8 543.98C886.12 550.12 915.59 556.49 915.59 556.49C915.59 556.49 908.37 527.22 902.05 521.08C898.957 518.451 894.98 517.096 890.926 517.29C886.871 517.483 883.041 519.21 880.213 522.122C877.384 525.033 875.768 528.911 875.691 532.969C875.614 537.028 877.083 540.964 879.8 543.98Z" fill="black"/>
<path id="Vector_46" opacity="0.25" d="M863.08 617.88C870.95 621.88 900.97 619.11 900.97 619.11C900.97 619.11 885.33 593.33 877.5 589.36C875.614 588.248 873.52 587.535 871.347 587.265C869.174 586.995 866.969 587.174 864.868 587.79C862.767 588.407 860.816 589.448 859.133 590.849C857.451 592.251 856.074 593.983 855.088 595.937C854.102 597.892 853.528 600.029 853.401 602.214C853.274 604.4 853.597 606.589 854.35 608.645C855.103 610.701 856.269 612.58 857.778 614.167C859.287 615.754 861.105 617.014 863.12 617.87L863.08 617.88Z" fill="black"/>
<path id="Vector_47" opacity="0.25" d="M856.68 691.89C863.77 697.13 893.82 699.5 893.82 699.5C893.82 699.5 882.76 671.5 875.67 666.21C873.998 664.802 872.056 663.751 869.962 663.122C867.868 662.493 865.668 662.3 863.497 662.555C861.326 662.81 859.23 663.507 857.339 664.603C855.448 665.699 853.801 667.17 852.501 668.927C851.2 670.684 850.274 672.689 849.778 674.818C849.282 676.947 849.228 679.155 849.619 681.306C850.009 683.457 850.837 685.504 852.049 687.323C853.262 689.142 854.835 690.693 856.67 691.88L856.68 691.89Z" fill="black"/>
<path id="Vector_48" d="M949.33 737.79C949.33 737.79 928.14 665.79 953.33 612.88C964.028 590.734 967.252 565.715 962.52 541.58C960.186 530.142 956.808 518.942 952.43 508.12" stroke="#535461" stroke-width="2" stroke-miterlimit="10"/>
<path id="Vector_49" d="M968.06 474.65C968.06 483.47 952.06 509.04 952.06 509.04C952.06 509.04 936.06 483.47 936.06 474.65C936.328 470.599 938.127 466.801 941.092 464.026C944.056 461.251 947.965 459.708 952.025 459.708C956.085 459.708 959.994 461.251 962.958 464.026C965.923 466.801 967.722 470.599 967.99 474.65H968.06Z" fill="#3861E5"/>
<path id="Vector_50" d="M994.5 523.5C989.71 530.9 962.41 543.69 962.41 543.69C962.41 543.69 962.91 513.55 967.7 506.15C968.767 504.238 970.216 502.566 971.956 501.237C973.695 499.908 975.689 498.95 977.814 498.422C979.939 497.895 982.15 497.809 984.309 498.17C986.468 498.531 988.531 499.332 990.368 500.522C992.206 501.712 993.78 503.267 994.992 505.09C996.205 506.913 997.03 508.965 997.417 511.12C997.805 513.275 997.745 515.487 997.244 517.618C996.742 519.749 995.808 521.754 994.5 523.51V523.5Z" fill="#3861E5"/>
<path id="Vector_51" d="M993.3 606.98C985.43 610.98 955.41 608.21 955.41 608.21C955.41 608.21 971.05 582.44 978.93 578.47C980.817 577.353 982.912 576.636 985.088 576.363C987.263 576.089 989.471 576.266 991.575 576.882C993.679 577.498 995.634 578.539 997.319 579.942C999.004 581.345 1000.38 583.079 1001.37 585.036C1002.36 586.994 1002.93 589.134 1003.06 591.322C1003.18 593.511 1002.85 595.702 1002.1 597.76C1001.34 599.817 1000.17 601.698 998.657 603.284C997.143 604.87 995.32 606.128 993.3 606.98V606.98Z" fill="#3861E5"/>
<path id="Vector_52" d="M978.2 669.92C971.11 675.16 941.06 677.53 941.06 677.53C941.06 677.53 952.12 649.53 959.21 644.24C962.627 642.03 966.757 641.204 970.761 641.931C974.764 642.659 978.341 644.884 980.762 648.155C983.183 651.426 984.266 655.496 983.792 659.537C983.318 663.579 981.322 667.288 978.21 669.91L978.2 669.92Z" fill="#3861E5"/>
<path id="Vector_53" d="M928.83 545.39C935.15 551.53 964.62 557.9 964.62 557.9C964.62 557.9 957.4 528.63 951.08 522.49C947.987 519.861 944.01 518.506 939.956 518.7C935.901 518.893 932.071 520.62 929.243 523.532C926.414 526.443 924.797 530.321 924.721 534.379C924.644 538.438 926.113 542.374 928.83 545.39V545.39Z" fill="#3861E5"/>
<path id="Vector_54" d="M912.12 619.25C919.99 623.25 950.01 620.48 950.01 620.48C950.01 620.48 934.37 594.7 926.5 590.73C922.761 589.142 918.558 589.036 914.744 590.433C910.93 591.83 907.79 594.625 905.96 598.252C904.131 601.878 903.75 606.065 904.894 609.963C906.037 613.86 908.621 617.177 912.12 619.24V619.25Z" fill="#3861E5"/>
<path id="Vector_55" d="M905.72 693.26C912.81 698.5 942.86 700.87 942.86 700.87C942.86 700.87 931.8 672.87 924.71 667.58C923.038 666.172 921.096 665.121 919.002 664.492C916.909 663.863 914.708 663.67 912.537 663.925C910.366 664.18 908.27 664.877 906.379 665.973C904.488 667.069 902.841 668.54 901.541 670.297C900.24 672.054 899.314 674.059 898.818 676.188C898.322 678.317 898.268 680.525 898.659 682.676C899.049 684.827 899.877 686.874 901.089 688.693C902.302 690.512 903.875 692.063 905.71 693.25L905.72 693.26Z" fill="#3861E5"/>
<path id="Vector_56" d="M592 733.95H455V738.95H592V733.95Z" fill="#3861E5"/>
<path id="Vector_57" d="M844 733.95H639V738.95H844V733.95Z" fill="#3861E5"/>
<path id="Vector_58" d="M955 733.95H893V738.95H955V733.95Z" fill="#3861E5"/>
<path id="Vector_59" opacity="0.1" d="M973.3 331.81C970.86 213.24 884.59 117.98 778.5 117.98C726.61 117.98 679.5 140.78 644.55 177.98C571.9 185.58 510.82 237.98 483.44 310.42C400.27 335.33 339 420.59 339 521.98C339 642.98 426.23 740.98 533.84 740.98C565.449 740.939 596.47 732.435 623.68 716.35C649.193 730.704 677.886 738.463 707.156 738.922C736.427 739.381 765.349 732.527 791.3 718.98C817.789 734.001 847.709 741.923 878.16 741.98C985.77 741.98 1073 643.98 1073 522.98C1073 440.84 1032.79 369.3 973.3 331.81Z" fill="#3861E5"/>
</g>
</g>
<defs>
<linearGradient id="paint0_linear" x1="659.674" y1="737.939" x2="647.302" y2="209.033" gradientUnits="userSpaceOnUse">
<stop stop-color="#808080" stop-opacity="0.25"/>
<stop offset="0.54" stop-color="#808080" stop-opacity="0.12"/>
<stop offset="1" stop-color="#808080" stop-opacity="0.1"/>
</linearGradient>
<clipPath id="clip0">
<rect width="1073" height="741.95" fill="white"/>
</clipPath>
</defs>
</svg>
